<?xml version="1.0" standalone="no"?>
<!DOCTYPE svg PUBLIC "-//W3C//DTD SVG 20010904//EN"
 "http://www.w3.org/TR/2001/REC-SVG-20010904/DTD/svg10.dtd">
<svg version="1.0" xmlns="http://www.w3.org/2000/svg"
 width="80px" height="80px" viewBox="0 0 580.000000 386.000000"
 preserveAspectRatio="xMidYMid meet">
<metadata>
Created by potrace 1.16, written by Peter Selinger 2001-2019
</metadata>
<g transform="translate(0.000000,386.000000) scale(0.100000,-0.100000)"
fill="#000000" stroke="none">
<path d="M2165 2840 c-44 -10 -232 -49 -417 -86 l-338 -69 0 -192 0 -193 185
0 185 0 0 -60 0 -60 -290 0 -290 0 0 -125 c0 -69 -3 -126 -7 -126 -5 -1 -37
-2 -73 -3 l-65 -3 -291 -217 -292 -218 32 -70 c18 -38 37 -69 42 -68 5 0 101
69 214 153 112 84 234 173 270 200 l65 47 1553 0 c854 0 1559 -3 1565 -7 7 -4
82 -59 167 -122 85 -63 205 -152 266 -197 l111 -82 36 73 36 73 -289 215 -288
215 -74 5 -73 4 -3 127 -3 126 -357 0 -358 0 -14 53 c-7 28 -15 58 -17 65 -4
9 55 12 276 12 l281 0 0 30 0 30 525 0 c460 0 525 -2 525 -15 0 -13 27 -15
185 -15 l185 0 0 120 0 120 -185 0 c-158 0 -185 -2 -185 -15 0 -13 -65 -15
-525 -15 l-525 0 0 30 0 30 -319 0 -320 0 -16 55 c-8 30 -17 55 -18 55 -6 0
-795 111 -891 125 -55 8 -100 14 -100 14 -1 -1 -37 -9 -81 -19z"/>
<path d="M1091 1619 c-142 -28 -238 -139 -248 -289 -9 -123 61 -241 175 -297
l57 -28 1575 0 1575 0 57 28 c65 32 121 90 151 156 34 72 31 188 -6 263 -33
67 -99 129 -165 155 -45 17 -122 18 -1587 19 -847 1 -1560 -2 -1584 -7z m184
-152 c100 -57 122 -179 48 -268 -76 -90 -224 -75 -281 29 -85 154 81 325 233
239z m420 0 c100 -57 122 -179 48 -268 -51 -60 -140 -76 -213 -39 -123 63
-124 245 0 308 56 28 114 28 165 -1z m392 12 c34 -13 80 -55 99 -91 21 -40 18
-114 -7 -158 -71 -126 -258 -116 -315 17 -60 139 82 286 223 232z m438 -12
c72 -41 106 -119 85 -196 -47 -174 -293 -174 -340 0 -40 146 122 271 255 196z
m415 3 c125 -64 128 -238 5 -307 -99 -56 -226 -2 -255 108 -39 144 116 267
250 199z m409 2 c104 -52 132 -184 58 -269 -108 -123 -307 -52 -307 111 0 54
16 89 57 128 52 50 130 62 192 30z m408 7 c38 -14 83 -57 99 -96 29 -66 12
-145 -42 -195 -112 -104 -294 -26 -294 126 0 54 16 89 57 128 48 46 118 61
180 37z m430 -10 c101 -49 127 -189 50 -271 -41 -44 -84 -61 -144 -56 -144 12
-210 177 -116 289 51 61 133 75 210 38z"/>
</g>
</svg>
